<?xml version="1.0" standalone="no"?>
<!DOCTYPE svg PUBLIC "-//W3C//DTD SVG 20010904//EN"
 "http://www.w3.org/TR/2001/REC-SVG-20010904/DTD/svg10.dtd">
<svg version="1.0" xmlns="http://www.w3.org/2000/svg"
 width="794.000000pt" height="635.000000pt" viewBox="0 0 794.000000 635.000000"
 preserveAspectRatio="xMidYMid meet">

<g transform="translate(0.000000,635.000000) scale(0.100000,-0.100000)"
fill="#000000" stroke="none">
<path d="M3674 6015 c-507 -51 -1016 -249 -1425 -555 -538 -403 -908 -972
-1070 -1643 -53 -218 -63 -326 -63 -642 0 -264 3 -316 22 -435 103 -619 372
-1148 802 -1580 339 -341 773 -596 1239 -730 483 -139 1016 -144 1514 -14
1039 270 1849 1127 2066 2186 72 348 75 746 10 1098 -141 753 -581 1418 -1224
1850 -544 365 -1210 530 -1871 465z m570 -700 c231 -30 433 -90 641 -189 155
-75 238 -124 365 -220 387 -291 690 -738 804 -1191 53 -214 60 -274 61 -535 0
-211 -3 -262 -23 -366 -80 -435 -271 -815 -561 -1116 -63 -65 -118 -117 -122
-116 -4 2 -65 80 -135 173 -70 94 -649 865 -1286 1713 -638 849 -1158 1545
-1156 1546 2 2 39 23 83 48 218 123 468 208 730 248 154 23 440 26 599 5z
m-1495 -938 c241 -320 2073 -2759 2233 -2972 80 -105 87 -89 -77 -170 -293
-145 -597 -215 -940 -215 -265 0 -454 30 -700 111 -705 233 -1270 874 -1420
1611 -126 620 31 1277 423 1772 71 89 192 216 206 215 6 0 130 -158 275 -352z"/>
<path d="M3359 4865 c-118 -20 -289 -75 -289 -93 0 -5 1637 -2189 1660 -2215
10 -11 79 18 107 45 15 14 23 33 23 52 -1 28 -13 39 -145 130 -80 55 -144 100
-143 102 2 1 54 28 116 59 165 83 168 98 41 243 -44 52 -79 95 -77 97 3 3 156
24 301 42 26 3 47 8 47 11 0 3 -49 100 -109 216 -441 856 -441 856 -571 986
-254 256 -626 382 -961 325z"/>
<path d="M5557 3564 l-57 -53 57 -83 c66 -97 130 -230 164 -343 21 -70 24 -99
23 -235 0 -146 -2 -161 -31 -248 -44 -130 -101 -222 -201 -321 l-84 -84 56
-56 56 -56 51 50 c124 122 232 300 279 465 32 108 39 347 15 457 -27 121 -64
231 -107 318 -39 77 -128 214 -151 234 -8 6 -30 -8 -70 -45z"/>
<path d="M5336 3378 l-57 -53 40 -53 c181 -239 173 -572 -20 -810 l-50 -62 47
-55 c26 -30 51 -55 55 -55 15 0 116 120 152 182 120 203 140 492 48 718 -31
76 -97 183 -134 218 l-24 22 -57 -52z"/>
<path d="M5133 3189 l-53 -50 25 -33 c52 -68 69 -124 70 -226 0 -83 -3 -102
-27 -153 -15 -32 -41 -76 -57 -96 l-30 -38 54 -53 55 -54 35 40 c19 21 53 75
74 119 78 158 75 330 -8 492 -21 43 -68 103 -79 103 -4 0 -31 -23 -59 -51z"/>
<path d="M2567 4402 c-205 -252 -299 -552 -268 -854 15 -142 48 -255 110 -384
118 -240 336 -454 623 -609 49 -26 90 -50 92 -54 2 -3 12 -72 21 -151 9 -80
23 -196 31 -258 22 -172 -6 -346 -80 -515 -14 -32 -26 -59 -26 -60 0 -3 1265
5 1269 8 1 2 -9 39 -23 82 -33 100 -63 245 -72 351 l-7 82 102 0 c55 0 101 2
101 5 0 3 -368 495 -817 1093 -449 598 -858 1142 -909 1209 l-92 123 -55 -68z"/>
</g>
</svg>
